<?xml version="1.0" encoding="UTF-8" standalone="no"?>
<!-- Created with Inkscape (http://www.inkscape.org/) -->

<svg
   width="170.68507mm"
   height="149.85988mm"
   viewBox="0 0 170.68507 149.85988"
   version="1.1"
   id="svg5"
   inkscape:version="1.1 (c68e22c387, 2021-05-23)"
   sodipodi:docname="logo.svg"
   xmlns:inkscape="http://www.inkscape.org/namespaces/inkscape"
   xmlns:sodipodi="http://sodipodi.sourceforge.net/DTD/sodipodi-0.dtd"
   xmlns="http://www.w3.org/2000/svg"
   xmlns:svg="http://www.w3.org/2000/svg">
  <sodipodi:namedview
     id="namedview7"
     pagecolor="#ffffff"
     bordercolor="#666666"
     borderopacity="1.0"
     inkscape:pageshadow="2"
     inkscape:pageopacity="0.0"
     inkscape:pagecheckerboard="0"
     inkscape:document-units="mm"
     showgrid="false"
     inkscape:zoom="0.46324355"
     inkscape:cx="223.42459"
     inkscape:cy="169.4573"
     inkscape:window-width="1366"
     inkscape:window-height="705"
     inkscape:window-x="-8"
     inkscape:window-y="-8"
     inkscape:window-maximized="1"
     inkscape:current-layer="layer1" />
  <defs
     id="defs2" />
  <g
     inkscape:label="Capa 1"
     inkscape:groupmode="layer"
     id="layer1"
     transform="translate(-45.45169,-103.27006)">
    <path
       d="m 45.45169,226.84137 9.133358,-10.31625 c 1.164449,2.79453 3.026728,5.01537 5.588494,6.6621 2.578312,1.63023 5.426569,2.45361 8.578003,2.45361 3.850816,0 6.895041,-0.91295 9.134193,-2.72147 2.238375,-1.827 3.349165,-4.28075 3.349165,-7.34321 0,-3.61738 -3.725227,-7.23547 -11.175717,-10.8712 l -5.7132,-2.82963 c -6.64464,-3.42018 -11.282962,-6.84142 -13.897398,-10.22667 -2.632872,-3.40254 -3.94063,-7.37835 -3.94063,-11.96305 0,-6.33977 2.507188,-11.53336 7.521748,-15.61747 11.21738,-9.0611 30.613385,-8.78417 39.468105,3.26884 l -8.645525,9.98432 c -1.109837,-2.16712 -2.65077,-3.81459 -4.584874,-4.96077 -1.934353,-1.12818 -4.244623,-1.70109 -6.895148,-1.70109 -3.277129,0 -5.90998,0.80574 -7.897813,2.41758 -1.970334,1.61149 -2.955466,3.72499 -2.955466,6.33978 0,4.03013 3.958131,7.73676 11.856085,11.12202 l 3.617878,1.57586 c 6.230688,2.81199 10.931101,6.04379 14.100103,9.67951 l -5.693833,-20.5052 c 5.178073,1.41217 10.356143,2.82398 15.533162,4.23615 3.17711,9.9441 6.35458,19.88785 9.5317,29.83089 17.95639,-64.30998 60.33417,-91.12461 101.84835,-112.08596 0.94086,0 1.88242,0 2.82434,0 -28.32559,15.75576 -51.03848,35.25449 -68.01414,58.57628 5.46699,-2.51919 11.60638,-3.7779 18.41006,-3.7779 6.21382,0 11.94541,1.30775 17.15699,3.94088 5.21123,2.61443 9.8679,6.53627 14.00563,11.74856 l -11.06875,8.18444 c -2.74003,-3.42124 -5.64092,-5.91008 -8.72208,-7.43303 -3.08046,-1.52188 -6.59024,-2.27435 -10.54841,-2.27435 -7.50429,0 -13.55725,2.36396 -18.14195,7.11058 -4.58505,4.74557 -6.87775,11.05006 -6.87775,18.91172 0,7.7731 2.27435,14.0416 6.84142,18.80552 4.56741,4.78172 10.53076,7.16421 17.87419,7.16421 5.31847,0 9.67034,-1.25402 13.05559,-3.77984 3.40255,-2.50702 5.10399,-5.83794 5.10399,-9.95663 v -0.84207 h -18.48202 v -13.53961 h 34.99485 l 0.10724,1.46826 0.0536,2.41758 c 0,11.49844 -3.2773,20.82871 -9.84955,27.95658 -6.5913,7.1465 -15.08055,10.71012 -25.50301,10.71012 -11.92813,0 -21.76039,-3.79649 -29.49716,-11.40781 -6.65939,-6.56688 -10.45316,-14.66649 -11.36897,-24.2885 -6.05614,15.48684 -10.27007,32.20202 -12.61392,50.16489 -2.23555,0 -4.47111,0 -6.70737,0 l -9.481939,-34.15125 c -0.765175,5.31485 -3.130195,9.71751 -7.103885,13.19971 -4.90714,4.31571 -11.515936,6.48296 -19.807449,6.48296 -5.910015,0 -10.943025,-1.00266 -15.115434,-3.02658 -4.155051,-2.00547 -7.28982,-4.9433 -9.384853,-8.79341"
       style="fill:#231f20;fill-opacity:1;fill-rule:nonzero;stroke:none;stroke-width:0.0352777"
       id="path834" />
  </g>
</svg>
