<?xml version="1.0" encoding="UTF-8" standalone="no"?>
<!-- Created with Inkscape (http://www.inkscape.org/) -->

<svg
   width="52.031715mm"
   height="44.473122mm"
   viewBox="0 0 52.031705 44.473119"
   version="1.1"
   id="svg5"
   inkscape:version="1.1 (c68e22c387, 2021-05-23)"
   sodipodi:docname="logo.svg"
   xmlns:inkscape="http://www.inkscape.org/namespaces/inkscape"
   xmlns:sodipodi="http://sodipodi.sourceforge.net/DTD/sodipodi-0.dtd"
   xmlns="http://www.w3.org/2000/svg"
   xmlns:svg="http://www.w3.org/2000/svg">
  <sodipodi:namedview
     id="namedview7"
     pagecolor="#ffffff"
     bordercolor="#666666"
     borderopacity="1.0"
     inkscape:pageshadow="2"
     inkscape:pageopacity="0.0"
     inkscape:pagecheckerboard="0"
     inkscape:document-units="mm"
     showgrid="false"
     inkscape:zoom="1.4783976"
     inkscape:cx="116.00398"
     inkscape:cy="128.17932"
     inkscape:window-width="1366"
     inkscape:window-height="705"
     inkscape:window-x="-8"
     inkscape:window-y="-8"
     inkscape:window-maximized="1"
     inkscape:current-layer="layer1"
     inkscape:snap-global="false">
    <sodipodi:guide
       position="-30.898701,185.91088"
       orientation="0,439.5924"
       id="guide30415" />
  </sodipodi:namedview>
  <defs
     id="defs2">
    <clipPath
       clipPathUnits="userSpaceOnUse"
       id="clipPath32956">
      <rect
         style="fill:none;fill-opacity:1;fill-rule:evenodd;stroke:#000000;stroke-width:1.40138;stroke-linecap:round;stroke-miterlimit:4;stroke-dasharray:none"
         id="rect32958"
         width="38.351387"
         height="66.978569"
         x="124.53238"
         y="-235.93906"
         transform="scale(1,-1)" />
    </clipPath>
  </defs>
  <g
     inkscape:label="Capa 1"
     inkscape:groupmode="layer"
     id="layer1"
     transform="translate(-95.301199,-171.71438)">
    <path
       style="fill:#000000;fill-opacity:1;stroke:#ffffff;stroke-width:0.722399;stroke-linecap:butt;stroke-linejoin:miter;stroke-miterlimit:4;stroke-dasharray:none;stroke-opacity:1"
       d="m 121.30509,185.79727 2.25066,0.0689 0.28131,1.79066 2.95398,-0.048 -0.28133,-3.46436 3.65731,-0.0689 0.1407,2.27278 6.47062,-0.0689 0.14069,29.54611 h -2.39132 l -0.28133,-4.06346 h -0.70333 l 0.0425,3.23698 -4.26236,0.13774 -0.42201,-2.06615 h -3.19883 l -0.13517,1.38891 -2.66867,0.0184 -0.058,-1.40728 h -1.11327 z"
       id="path39118-7"
       sodipodi:nodetypes="ccccccccccccccccccccc" />
    <path
       style="fill:none;stroke:#ffffff;stroke-width:0.448983;stroke-linecap:butt;stroke-linejoin:miter;stroke-miterlimit:4;stroke-dasharray:none;stroke-opacity:1"
       d="m 124.30322,190.76879 0.11755,-14.46981"
       id="path43065-1-4-3-2" />
    <path
       style="fill:#000000;fill-opacity:1;stroke:#ffffff;stroke-width:0.952031;stroke-linecap:butt;stroke-linejoin:miter;stroke-miterlimit:4;stroke-dasharray:none;stroke-opacity:1"
       d="m 106.41679,175.85114 0.0878,2.11962 2.28107,0.26491 -0.061,2.78195 -4.41309,-0.26495 -0.0878,3.44432 2.8952,0.13259 -0.0878,6.09376 37.63755,0.13243 v -2.25206 l -5.1763,-0.26494 v -0.66238 l 4.12347,0.0402 0.17546,-4.01413 -2.63197,-0.39743 v -6.75613 z"
       id="path39118-7-6"
       sodipodi:nodetypes="ccccccccccccccccc" />
    <path
       style="fill:none;stroke:#ffffff;stroke-width:0.322428;stroke-linecap:butt;stroke-linejoin:miter;stroke-miterlimit:4;stroke-dasharray:none;stroke-opacity:1"
       d="m 105.45,185.25719 8.01026,0.0394"
       id="path43065-1-4" />
    <path
       style="fill:#000000;fill-opacity:1;stroke:#ffffff;stroke-width:0.448234;stroke-linecap:butt;stroke-linejoin:miter;stroke-miterlimit:4;stroke-dasharray:none;stroke-opacity:1"
       d="m 112.0748,193.41074 1.08649,-0.0579 0.13592,-1.5046 1.42602,0.0405 -0.13593,2.91086 1.76555,0.058 0.0679,-1.90966 3.12364,0.058 0.0679,-24.82569 h -1.1544 l -0.13592,3.41429 h -0.33953 l 0.0206,-2.71986 -2.05762,-0.11572 -0.2037,1.73606 h -3.46316 z"
       id="path39118-7-6-9"
       sodipodi:nodetypes="ccccccccccccccccc" />
    <path
       style="fill:#000000;fill-opacity:1;stroke:#fffcff;stroke-width:0.872009;stroke-linecap:butt;stroke-linejoin:miter;stroke-miterlimit:4;stroke-dasharray:none;stroke-opacity:1"
       d="m 144.08984,209.60155 -0.11179,-2.34282 -2.90636,-0.29284 0.0781,-3.07497 5.62286,0.29285 0.11178,-3.80708 -3.68885,-0.14643 0.11178,-6.73562 -41.60504,-0.14643 v 2.48925 l 0.24522,0.29286 v 0.73213 l -5.253817,-0.0442 -0.22356,4.43693 2.82431,0.43928 v 7.46775 z"
       id="path39118"
       sodipodi:nodetypes="ccccccccccccccccc" />
    <path
       style="fill:none;stroke:#ffffff;stroke-width:0.5;stroke-linecap:butt;stroke-linejoin:miter;stroke-miterlimit:4;stroke-dasharray:none;stroke-opacity:1"
       d="m 101.3643,196.38761 6.09995,0.12449"
       id="path43065" />
    <path
       style="fill:none;stroke:#ffffff;stroke-width:0.574166;stroke-linecap:butt;stroke-linejoin:miter;stroke-miterlimit:4;stroke-dasharray:none;stroke-opacity:1"
       d="m 95.302563,204.67199 24.195127,0.11497"
       id="path43065-1" />
    <path
       style="fill:none;stroke:#ffffff;stroke-width:0.5;stroke-linecap:butt;stroke-linejoin:miter;stroke-miterlimit:4;stroke-dasharray:none;stroke-opacity:1"
       d="m 132.01991,180.17456 0.12449,-6.09995"
       id="path43065-1-4-3" />
    <path
       style="fill:none;stroke:#ffffff;stroke-width:0.264583px;stroke-linecap:butt;stroke-linejoin:miter;stroke-opacity:1"
       d="m 137.46582,196.97828 6.09995,0.12449"
       id="path43065-2" />
    <path
       style="fill:none;stroke:#ffffff;stroke-width:0.267507px;stroke-linecap:butt;stroke-linejoin:miter;stroke-opacity:1"
       d="m 135.55552,203.82456 6.12344,0.1268"
       id="path43065-2-2" />
  </g>
</svg>
